<?xml version="1.0" encoding="utf-8"?>
<!-- Generator: Adobe Illustrator 16.0.0, SVG Export Plug-In . SVG Version: 6.00 Build 0)  -->
<!DOCTYPE svg PUBLIC "-//W3C//DTD SVG 1.1//EN" "http://www.w3.org/Graphics/SVG/1.1/DTD/svg11.dtd">
<svg version="1.1" id="Calque_1" xmlns="http://www.w3.org/2000/svg" xmlns:xlink="http://www.w3.org/1999/xlink" x="0px" y="0px"
	 width="477.764px" height="103.661px" viewBox="0 0 477.764 103.661" enable-background="new 0 0 477.764 103.661"
	 xml:space="preserve">
<g id="Groupe_377" transform="translate(-33.187 0)">
	<g id="Groupe_372" transform="translate(305.883 14.285)">
		<g id="Groupe_371">
			<path id="Tracé_810" fill="#151514" d="M58.988,62.532h8.131c-0.232,3.479-1.619,6.489-3.102,9.407
				c-3.561,6.992-9.748,9.564-17.178,9.584c-28.619,0.076-57.238,0.107-85.857,0.093c-21.789,0.015-43.577,0.021-65.365,0.021h-3.19
				c0.668-2.565,1.157-4.951,1.976-7.215c0.19-0.527,1.5-0.918,2.29-0.921c15.036-0.05,30.071-0.026,45.107-0.028
				c34.577,0,69.151-0.101,103.727,0.043C53.75,73.545,57.197,70.386,58.988,62.532z"/>
			<path id="Tracé_811" fill="#161615" d="M-104.804,70.302c0.688-2.563,1.199-4.648,1.839-6.695
				c0.237-0.475,0.65-0.838,1.151-1.014c0.495-0.109,1.006-0.129,1.51-0.059H53.674h1.723c0.227,4.6-2.867,7.764-7.529,7.766
				c-24.539,0.01-49.076,0.012-73.615,0.008c-25.41,0-50.819,0-76.229,0L-104.804,70.302z"/>
			<path id="Tracé_812" fill="#D00032" d="M202.252,1.856l-2.164,8.121h-2.209c-39.5,0-79,0.008-118.5,0.024
				c-9.211,0.01-11.563,3.388-13.572,9.527c-0.441,1.358-1,1.851-2.404,1.772c-2.096-0.117-4.201-0.03-6.32-0.03
				c1.695-10.53,9.277-19.415,21.344-19.141c11.172,0.253,22.355-0.2,33.533-0.229c29.625-0.08,59.248-0.127,88.873-0.142
				C201.19,1.757,201.547,1.805,202.252,1.856z"/>
			<path id="Tracé_813" fill="#D00032" d="M199.279,13.094c-0.771,2.843-1.344,5.292-2.164,7.656
				c-0.131,0.376-1.375,0.511-2.102,0.512c-18.295,0.026-36.588,0.033-54.883,0.02c-23.156,0-46.313-0.004-69.473-0.013h-2.143
				c1.08-5.721,3.951-8.156,9.381-8.156c38.91-0.005,77.822-0.011,116.732-0.019H199.279z"/>
		</g>
	</g>
	<g id="Groupe_373" transform="translate(311.444 37.581)">
		<path id="Tracé_814" fill="#161615" stroke="#161615" d="M-91.423,2.484l2.422,22.126h0.088l12.105-22.126h9.64l-6.646,30.558
			h-6.471l5.723-24.31h-0.088l-13.294,24.31h-5.284l-3.04-24.31h-0.088l-4.71,24.31h-6.513l6.601-30.558H-91.423z"/>
		<path id="Tracé_815" fill="#161615" stroke="#161615" d="M-40.117,26.066c-0.651,1.583-1.617,3.017-2.839,4.215
			c-1.232,1.162-2.705,2.039-4.314,2.567c-2.007,0.631-4.104,0.928-6.207,0.879c-1.517,0-3.028-0.157-4.512-0.471
			c-1.396-0.281-2.735-0.795-3.961-1.521c-1.148-0.688-2.113-1.644-2.815-2.783c-0.755-1.288-1.13-2.764-1.082-4.256
			c0-0.769,0.073-1.535,0.22-2.29c0.147-0.755,0.294-1.505,0.44-2.247l3.829-17.676h6.911l-3.83,17.677
			c-0.061,0.258-0.126,0.549-0.2,0.877s-0.146,0.678-0.22,1.049c-0.074,0.371-0.133,0.721-0.176,1.049
			c-0.042,0.291-0.063,0.584-0.066,0.877c0.012,0.438,0.094,0.873,0.242,1.285c0.182,0.519,0.491,0.98,0.898,1.348
			c0.525,0.466,1.138,0.82,1.802,1.05c0.949,0.313,1.948,0.459,2.948,0.429c1.168,0.039,2.333-0.142,3.435-0.535
			c0.824-0.316,1.557-0.832,2.135-1.5c0.575-0.701,1.009-1.509,1.276-2.375c0.309-0.941,0.595-1.982,0.857-3.123l3.918-18.103h6.912
			l-3.83,17.761C-38.748,22.241-39.343,24.188-40.117,26.066z"/>
		<path id="Tracé_816" fill="#161615" stroke="#161615" d="M-21.518,2.484l-5.371,24.907H-11.7l-1.234,5.65h-22.1l6.559-30.56
			L-21.518,2.484z"/>
		<path id="Tracé_817" fill="#161615" stroke="#161615" d="M-11.309,8.133l1.232-5.649H16.16l-1.23,5.649h-9.42L0.14,33.042h-6.955
			l5.369-24.909H-11.309z"/>
		<path id="Tracé_818" fill="#161615" stroke="#161615" d="M26.638,2.484L19.99,33.042h-6.91l6.602-30.558H26.638z"/>
		<path id="Tracé_819" fill="#D00032" stroke="#D00032" d="M45.214,2.484c1.471-0.012,2.939,0.139,4.379,0.449
			c1.238,0.258,2.414,0.76,3.457,1.477c0.979,0.701,1.762,1.645,2.266,2.739c0.582,1.334,0.859,2.782,0.814,4.237
			c0.064,3.054-1.293,5.964-3.678,7.875c-1.16,0.933-2.48,1.644-3.898,2.102c-1.506,0.49-3.082,0.736-4.666,0.729h-8.539
			l-2.377,10.955h-6.867l6.514-30.559L45.214,2.484z M43.541,16.864c1.498,0.086,2.979-0.378,4.158-1.306
			c1.088-1.051,1.646-2.536,1.521-4.044c0.023-0.658-0.121-1.313-0.418-1.9c-0.264-0.48-0.65-0.88-1.123-1.156
			c-0.486-0.277-1.014-0.472-1.563-0.578c-0.588-0.115-1.186-0.172-1.783-0.171h-5.898l-1.939,9.159L43.541,16.864z"/>
		<path id="Tracé_820" fill="#D00032" stroke="#D00032" d="M69.029,2.484l-6.646,30.558h-6.91l6.6-30.558H69.029z"/>
		<path id="Tracé_821" fill="#D00032" stroke="#D00032" d="M99.048,2.484l-1.188,5.649h-17.08l-1.408,6.548h15.801l-1.146,5.221
			H78.228l-1.629,7.489h17.344l-1.232,5.65H68.5l6.561-30.56L99.048,2.484z"/>
		<path id="Tracé_822" fill="#D00032" stroke="#D00032" d="M120.904,8.838c-1.121-0.985-2.58-1.499-4.072-1.434
			c-1.611-0.039-3.203,0.369-4.6,1.177c-1.283,0.763-2.381,1.801-3.213,3.039c-0.85,1.271-1.482,2.673-1.871,4.151
			c-0.402,1.456-0.609,2.96-0.617,4.472c-0.006,1.016,0.135,2.025,0.418,3c0.264,0.907,0.695,1.756,1.277,2.5
			c0.588,0.74,1.342,1.334,2.199,1.732c1.018,0.453,2.123,0.674,3.234,0.643c0.91,0.006,1.814-0.16,2.662-0.492
			c0.813-0.313,1.564-0.762,2.225-1.326c0.646-0.557,1.195-1.215,1.629-1.949c0.43-0.711,0.727-1.493,0.881-2.311h6.912
			c-0.6,1.909-1.436,3.736-2.488,5.436c-0.859,1.38-1.945,2.603-3.213,3.617c-1.178,0.922-2.523,1.605-3.961,2.013
			c-1.541,0.426-3.135,0.635-4.734,0.62c-4.459,0-7.9-1.155-10.32-3.467c-2.422-2.313-3.631-5.648-3.631-10.014
			c-0.012-2.404,0.391-4.794,1.189-7.062c0.754-2.16,1.912-4.157,3.412-5.885c1.502-1.712,3.346-3.09,5.414-4.044
			c2.244-1.024,4.688-1.537,7.152-1.5c1.715-0.016,3.422,0.229,5.063,0.727c1.475,0.441,2.846,1.176,4.029,2.161
			c1.137,0.965,2.031,2.181,2.619,3.552c0.643,1.551,0.941,3.222,0.881,4.9h-6.912C122.584,11.516,122.013,9.966,120.904,8.838z"/>
		<path id="Tracé_823" fill="#D00032" stroke="#D00032" d="M161.029,2.484l-1.188,5.649h-17.08l-1.408,6.548h15.799l-1.145,5.221
			h-15.801l-1.629,7.489h17.346l-1.234,5.65H130.48l6.559-30.56L161.029,2.484z"/>
		<path id="Tracé_824" fill="#D00032" stroke="#D00032" d="M167.146,25.617c0.299,0.698,0.787,1.298,1.41,1.733
			c0.664,0.449,1.412,0.762,2.199,0.92c0.91,0.191,1.842,0.285,2.771,0.277c0.713,0,1.422-0.088,2.113-0.256
			c0.674-0.16,1.32-0.42,1.916-0.771c0.561-0.332,1.043-0.785,1.408-1.326c0.379-0.586,0.57-1.271,0.551-1.969
			c0.025-0.678-0.229-1.334-0.701-1.819c-0.531-0.513-1.15-0.926-1.826-1.22c-0.826-0.37-1.68-0.672-2.555-0.9
			c-0.953-0.256-1.914-0.527-2.883-0.813c-0.988-0.281-1.959-0.625-2.904-1.027c-0.916-0.385-1.77-0.904-2.531-1.54
			c-0.754-0.637-1.367-1.424-1.801-2.311c-0.482-1.045-0.717-2.188-0.682-3.338c-0.047-1.529,0.334-3.042,1.1-4.366
			c0.719-1.183,1.697-2.186,2.861-2.932c1.225-0.777,2.57-1.341,3.982-1.669c1.479-0.355,2.992-0.535,4.514-0.535
			c1.533-0.009,3.064,0.17,4.557,0.535c1.35,0.323,2.621,0.913,3.742,1.733c1.078,0.807,1.951,1.855,2.553,3.06
			c0.668,1.409,0.992,2.956,0.947,4.515h-6.561c0.051-0.74-0.078-1.481-0.375-2.161c-0.268-0.571-0.676-1.063-1.188-1.434
			c-0.549-0.386-1.17-0.656-1.826-0.792c-1.383-0.299-2.813-0.313-4.201-0.043c-0.625,0.116-1.227,0.333-1.783,0.642
			c-0.512,0.286-0.947,0.689-1.273,1.177c-0.338,0.538-0.508,1.165-0.484,1.8c-0.012,0.719,0.305,1.404,0.859,1.862
			c0.615,0.526,1.313,0.945,2.066,1.241c0.807,0.328,1.639,0.586,2.488,0.771c0.852,0.187,1.539,0.336,2.068,0.449
			c1.152,0.288,2.285,0.653,3.389,1.091c0.975,0.382,1.873,0.923,2.664,1.604c0.752,0.66,1.346,1.479,1.74,2.399
			c0.438,1.103,0.648,2.281,0.615,3.468c0.049,1.633-0.354,3.248-1.166,4.664c-0.75,1.254-1.771,2.321-2.992,3.125
			c-1.26,0.815-2.654,1.401-4.117,1.732c-1.486,0.352-3.008,0.531-4.533,0.533c-4.398,0-7.68-0.868-9.838-2.609
			c-2.16-1.74-3.238-4.479-3.236-8.217h6.561C166.677,23.825,166.808,24.754,167.146,25.617z"/>
	</g>
	<g id="Groupe_374" transform="translate(320.555 8.462)">
		<path id="Tracé_825" fill="#D00032" d="M-94.611,2.207c0.776-0.024,1.556,0.051,2.313,0.225c0.651,0.146,1.261,0.437,1.786,0.847
			c0.505,0.411,0.896,0.944,1.138,1.548c0.285,0.742,0.421,1.533,0.4,2.328c0.002,0.623-0.105,1.241-0.318,1.826
			c-0.203,0.566-0.508,1.091-0.898,1.548c-0.392,0.452-0.856,0.833-1.376,1.125c-0.54,0.304-1.134,0.501-1.746,0.582v0.053
			c0.687,0.172,1.259,0.643,1.561,1.283c0.274,0.649,0.41,1.347,0.4,2.051c0,0.424-0.022,0.931-0.066,1.522
			c-0.044,0.59-0.064,1.177-0.064,1.76c0,0.423,0.018,0.823,0.053,1.2c0.025,0.338,0.098,0.672,0.212,0.992h-4.048
			c-0.055-0.229-0.102-0.446-0.133-0.648c-0.036-0.205-0.055-0.414-0.055-0.622c0.001-0.642,0.036-1.282,0.106-1.919
			c0.07-0.637,0.104-1.277,0.104-1.918c0.015-0.385-0.055-0.768-0.198-1.125c-0.123-0.277-0.314-0.518-0.558-0.7
			c-0.255-0.184-0.55-0.306-0.858-0.357c-0.367-0.064-0.739-0.095-1.111-0.093h-3.916l-1.568,7.384h-4.129l3.943-18.892H-94.611z
			 M-97.412,10.754c0.542,0.002,1.083-0.055,1.613-0.172c0.479-0.102,0.94-0.281,1.363-0.529c0.387-0.228,0.714-0.545,0.953-0.926
			c0.246-0.411,0.369-0.883,0.355-1.362c0.021-0.424-0.066-0.847-0.251-1.231c-0.153-0.293-0.388-0.536-0.675-0.7
			c-0.304-0.167-0.636-0.274-0.979-0.318c-0.386-0.054-0.774-0.08-1.164-0.079h-3.94l-1.116,5.316L-97.412,10.754z"/>
		<path id="Tracé_826" fill="#D00032" d="M-70.11,2.207l-0.716,3.492h-10.266l-0.847,4.048h9.5l-0.688,3.229h-9.5l-0.979,4.63
			h10.425l-0.741,3.493h-14.552l3.947-18.892H-70.11z"/>
		<path id="Tracé_827" fill="#D00032" d="M-66.432,16.508c0.177,0.429,0.471,0.8,0.847,1.072c0.398,0.276,0.85,0.47,1.323,0.569
			c0.548,0.119,1.105,0.176,1.667,0.172c0.428,0,0.854-0.054,1.27-0.159c0.406-0.099,0.795-0.259,1.151-0.476
			c0.339-0.208,0.629-0.488,0.847-0.82c0.229-0.364,0.345-0.788,0.331-1.218c0.018-0.417-0.137-0.822-0.423-1.125
			c-0.318-0.316-0.689-0.571-1.1-0.754c-0.495-0.228-1.01-0.415-1.535-0.556c-0.573-0.159-1.151-0.325-1.733-0.5
			c-0.595-0.174-1.178-0.386-1.746-0.635c-0.553-0.239-1.064-0.561-1.521-0.953c-0.457-0.396-0.826-0.883-1.085-1.429
			c-0.291-0.648-0.433-1.354-0.41-2.064c-0.029-0.943,0.199-1.877,0.662-2.7c0.428-0.727,1.016-1.347,1.72-1.812
			c0.733-0.479,1.543-0.829,2.396-1.032c0.887-0.22,1.798-0.331,2.712-0.33c0.923-0.005,1.843,0.105,2.736,0.33
			c0.814,0.201,1.58,0.566,2.249,1.072c0.651,0.503,1.178,1.15,1.535,1.891c0.402,0.875,0.598,1.83,0.569,2.792h-3.943
			c0.03-0.457-0.047-0.915-0.225-1.337c-0.16-0.351-0.405-0.655-0.714-0.886c-0.329-0.238-0.704-0.404-1.102-0.489
			c-0.831-0.185-1.69-0.194-2.525-0.027c-0.377,0.073-0.739,0.208-1.071,0.4c-0.311,0.178-0.573,0.427-0.768,0.727
			c-0.203,0.334-0.306,0.72-0.291,1.111c-0.009,0.441,0.182,0.863,0.517,1.151c0.368,0.325,0.789,0.584,1.244,0.768
			c0.483,0.203,0.986,0.362,1.5,0.476l1.244,0.278c0.692,0.179,1.374,0.404,2.036,0.675c0.587,0.236,1.128,0.572,1.601,0.992
			c0.453,0.411,0.81,0.917,1.045,1.482c0.266,0.683,0.392,1.412,0.371,2.144c0.03,1.007-0.211,2.003-0.7,2.884
			c-0.446,0.771-1.063,1.432-1.8,1.932c-0.754,0.503-1.592,0.866-2.475,1.071c-0.893,0.217-1.808,0.329-2.726,0.331
			c-2.646,0-4.617-0.538-5.914-1.614c-1.297-1.076-1.944-2.77-1.944-5.08h3.942C-66.718,15.401-66.638,15.975-66.432,16.508z"/>
		<path id="Tracé_828" fill="#D00032" d="M-35.315,2.207l-0.717,3.492h-10.264l-0.848,4.048h9.5l-0.688,3.228h-9.5l-0.979,4.63
			h10.424l-0.74,3.493h-14.553l3.942-18.892L-35.315,2.207z"/>
		<path id="Tracé_829" fill="#D00032" d="M-22.565,2.207l3.146,18.892h-4.127l-0.609-4.207h-7.064l-2.381,4.207h-4.365
			l11.139-18.892H-22.565z M-24.52,13.796l-0.926-7.51H-25.5l-4.074,7.515L-24.52,13.796z"/>
		<path id="Tracé_830" fill="#D00032" d="M-1.354,16.786c-0.391,0.974-0.971,1.861-1.707,2.607
			c-0.734,0.715-1.621,1.258-2.594,1.588c-1.203,0.389-2.465,0.572-3.73,0.542c-0.912,0-1.82-0.097-2.711-0.291
			c-0.842-0.175-1.648-0.493-2.381-0.94c-0.695-0.429-1.275-1.019-1.695-1.72c-0.453-0.801-0.678-1.712-0.646-2.633
			c-0.002-0.475,0.045-0.949,0.133-1.416c0.088-0.467,0.176-0.93,0.264-1.389l2.301-10.928h4.15l-2.299,10.928
			c-0.037,0.159-0.076,0.339-0.119,0.542c-0.045,0.203-0.088,0.419-0.133,0.648s-0.08,0.445-0.107,0.648
			c-0.025,0.18-0.037,0.361-0.039,0.542c0.006,0.271,0.055,0.539,0.146,0.794c0.107,0.319,0.295,0.605,0.543,0.833
			c0.313,0.286,0.682,0.507,1.084,0.648c0.568,0.194,1.17,0.283,1.771,0.264c0.703,0.025,1.404-0.087,2.064-0.331
			c0.5-0.195,0.941-0.513,1.289-0.923c0.346-0.436,0.605-0.934,0.768-1.468c0.186-0.582,0.357-1.226,0.516-1.931l2.355-11.192h4.154
			l-2.303,10.981C-0.523,14.419-0.885,15.623-1.354,16.786z"/>
	</g>
	<g id="PvxyY7" transform="translate(438.777 0)">
		<g id="Groupe_375">
			<path id="Tracé_831" d="M-88.091,2.086l1.311,0.34c0.615,0.245,1.24,0.471,1.846,0.738c6.238,2.797,10.021,9.237,9.424,16.048
				c-0.061,0.659-0.168,1.312-0.252,1.969l-0.373,1.432c-0.207,0.527-0.398,1.061-0.623,1.578c-1.328,3.109-3.617,5.712-6.529,7.428
				c-2.801,1.697-6.059,2.474-9.32,2.221c-0.801-0.058-1.592-0.2-2.387-0.3l-1.246-0.323c-0.561-0.218-1.125-0.415-1.672-0.656
				c-6.227-2.71-10.076-9.04-9.621-15.814c0.053-0.766,0.18-1.526,0.271-2.29l0.357-1.37c0.217-0.557,0.414-1.122,0.654-1.669
				c2.707-6.223,9.033-10.074,15.805-9.622C-89.658,1.849-88.874,1.987-88.091,2.086z M-88.703,13.411
				c0.83,0.216,1.682,0.479,2.553,0.651c0.748,0.177,1.516,0.266,2.285,0.266c1.613-0.026,3.174-0.589,4.432-1.6
				c0.178-0.101,0.24-0.328,0.139-0.506c-0.006-0.011-0.012-0.021-0.02-0.031c-1.365-3.042-3.848-5.442-6.932-6.707
				c-4.346-1.959-9.412-1.379-13.201,1.511c-0.146,0.076-0.205,0.257-0.129,0.404c0.004,0.007,0.008,0.015,0.012,0.022
				c0.713,1.822,2.125,3.284,3.922,4.058c0.891,0.338,1.807,0.61,2.738,0.813c0.393,0.112,0.793,0.208,1.209,0.316
				c-2.742,0.148-4.928,2.342-5.066,5.084c-0.045-0.171-0.068-0.273-0.1-0.374c-0.285-1.031-0.49-2.091-0.869-3.085
				c-0.734-1.969-2.273-3.531-4.232-4.291c-0.174-0.109-0.402-0.057-0.512,0.117c-0.008,0.011-0.014,0.023-0.02,0.035
				c-2.164,2.965-2.959,6.712-2.189,10.3c0.789,4.322,3.688,7.964,7.721,9.706c0.158,0.109,0.377,0.068,0.484-0.091
				c0.008-0.011,0.016-0.023,0.021-0.035c1.236-1.56,1.777-3.56,1.494-5.531c-0.213-1.126-0.496-2.237-0.852-3.327
				c-0.025-0.093-0.053-0.184-0.08-0.275c0.748,1.02,1.816,1.757,3.035,2.094c1.209,0.321,2.49,0.215,3.631-0.3
				c-0.467,0.489-0.938,0.954-1.414,1.415c-0.951,0.861-1.672,1.945-2.1,3.154c-0.432,1.173-0.557,2.436-0.363,3.671
				c0.039,0.211,0.117,0.319,0.346,0.322c0.43,0.006,0.857,0.054,1.285,0.053c7.428-0.028,13.426-6.073,13.398-13.501
				c-0.002-0.443-0.025-0.887-0.07-1.328c-0.025-0.218-0.07-0.346-0.324-0.377c-2.025-0.293-4.084,0.273-5.676,1.563
				c-0.773,0.679-1.508,1.4-2.201,2.161c-0.109,0.11-0.223,0.218-0.383,0.374C-85.632,17.719-86.47,14.858-88.703,13.411z
				 M-96.962,13.611c0.523,0.13,1.057-0.184,1.191-0.705c0.143-0.525-0.168-1.066-0.693-1.208s-1.064,0.169-1.209,0.694
				c-0.002,0.012-0.004,0.025-0.008,0.037C-97.806,12.954-97.484,13.482-96.962,13.611L-96.962,13.611z M-92.206,24.368
				c0.152-0.518-0.141-1.063-0.658-1.219c-0.52-0.155-1.063,0.139-1.219,0.657c-0.154,0.517,0.139,1.061,0.652,1.218
				c0.518,0.158,1.063-0.131,1.221-0.646C-92.21,24.375-92.208,24.372-92.206,24.368L-92.206,24.368z M-83.568,16.18
				c0.143-0.523-0.166-1.062-0.689-1.204c-0.521-0.142-1.063,0.167-1.203,0.69c-0.141,0.523,0.166,1.062,0.689,1.204
				c0.002,0,0.002,0,0.004,0.001c0.52,0.143,1.055-0.162,1.197-0.681C-83.57,16.187-83.568,16.184-83.568,16.18L-83.568,16.18z"/>
			<path id="Tracé_832" d="M-92.763,22.7c-2.666-0.703-4.26-3.434-3.557-6.1c0.703-2.667,3.434-4.259,6.1-3.556
				c2.668,0.703,4.26,3.434,3.559,6.1v0.001C-87.367,21.811-90.097,23.403-92.763,22.7z M-94.945,16.829
				c-0.549,1.895,0.541,3.875,2.438,4.424c1.895,0.549,3.875-0.542,4.426-2.438c0.547-1.894-0.543-3.875-2.438-4.424
				C-92.413,13.848-94.392,14.937-94.945,16.829L-94.945,16.829z M-90.351,13.403l-0.148-0.037c-0.111,0.1-0.301,0.193-0.313,0.305
				c-0.012,0.112,0.137,0.261,0.215,0.392c0.131-0.079,0.328-0.132,0.375-0.246C-90.177,13.703-90.302,13.544-90.351,13.403
				L-90.351,13.403z M-93.035,14.031l0.039-0.134c-0.102-0.118-0.184-0.312-0.301-0.332s-0.27,0.127-0.404,0.2
				c0.074,0.136,0.123,0.339,0.234,0.387C-93.353,14.2-93.181,14.078-93.035,14.031L-93.035,14.031z M-86.935,17.748l-0.154-0.038
				c-0.111,0.11-0.287,0.205-0.318,0.336c0.008,0.143,0.092,0.271,0.219,0.336c0.154,0.008,0.299-0.063,0.387-0.189
				c0.039-0.121-0.08-0.294-0.131-0.445H-86.935z M-95.837,19.248l0.139,0.035c0.113-0.1,0.309-0.192,0.322-0.307
				c0.018-0.115-0.135-0.266-0.213-0.4c-0.133,0.08-0.336,0.133-0.381,0.247c-0.045,0.114,0.084,0.283,0.135,0.427L-95.837,19.248z
				 M-93.515,21.567l0.033-0.142c-0.1-0.112-0.199-0.3-0.311-0.316c-0.154,0.008-0.297,0.093-0.379,0.226
				c-0.063,0.128-0.01,0.283,0.117,0.347c0.035,0.017,0.074,0.026,0.113,0.027C-93.79,21.689-93.646,21.641-93.515,21.567
				L-93.515,21.567z M-87.642,15.536l0.031-0.137c-0.102-0.112-0.199-0.3-0.314-0.314c-0.115-0.014-0.262,0.144-0.395,0.226
				c0.084,0.132,0.141,0.335,0.256,0.376s0.281-0.095,0.422-0.15V15.536z M-88.322,21.136l0.139,0.03
				c0.109-0.106,0.299-0.2,0.309-0.32s-0.145-0.26-0.229-0.39c-0.129,0.085-0.328,0.147-0.367,0.263
				c-0.039,0.116,0.092,0.273,0.15,0.415L-88.322,21.136z M-95.423,15.628l-0.141-0.036c-0.107,0.106-0.258,0.194-0.309,0.322
				c-0.063,0.125-0.012,0.276,0.113,0.337c0.039,0.019,0.08,0.028,0.123,0.026c0.152-0.016,0.289-0.106,0.363-0.241
				c0.039-0.106-0.092-0.27-0.146-0.41L-95.423,15.628z M-90.992,22.546l0.145,0.033c0.109-0.1,0.299-0.2,0.307-0.313
				c0.037-0.166-0.066-0.33-0.232-0.367c-0.164-0.037-0.33,0.067-0.367,0.232c-0.033,0.104,0.098,0.272,0.154,0.413L-90.992,22.546z
				"/>
		</g>
	</g>
	<g id="Groupe_376" transform="translate(149.086 25.45)">
		<path id="Tracé_833" fill="none" d="M-73.748,17.234v1.572l1.286-1.572H-73.748z"/>
		<path id="Tracé_834" d="M37.221,35.584l6.181-12.806h-8.777v12.806H37.221z"/>
		<rect id="Rectangle_404" x="-30.176" y="39.027" width="18.538" height="5.92"/>
		<path id="Tracé_835" d="M-98.977,22.777h-8.6l3.975,12.806h4.626L-98.977,22.777L-98.977,22.777z"/>
		<path id="Tracé_836" d="M-102.534,39.027l1.837,5.92h1.72v-5.92H-102.534z"/>
		<rect id="Rectangle_405" x="-51.965" y="39.027" width="18.349" height="5.92"/>
		<rect id="Rectangle_406" x="-95.537" y="22.777" width="18.345" height="12.806"/>
		<path id="Tracé_837" d="M-4.154,13.795l1.345-3.566L-8.2,1.757v12.038H-4.154z"/>
		<path id="Tracé_838" d="M-2.546,13.795l-0.684,1.87l-0.574,1.57l-3.755,10.272l12.5,4.568l5.021,1.836l0.058,0.021l1.188,0.436
			l0.061-0.165l2.136-5.869v0.416l2.161-5.971h-0.139l1.169-3.206l-3.19-1.165l-3.207-1.171l-0.091-0.033l-0.146-0.053l-2.306-0.842
			c-0.289-0.13-0.543-0.33-0.735-0.583c-0.325-0.416-0.538-0.908-0.619-1.43c-0.029-0.171-0.052-0.336-0.072-0.5
			c-0.178-1.409-0.12-2.514-2.22-3.334C1.665,9.547-0.7,8.745-0.7,8.745l-1.111,3.04l-0.101-0.163l-0.787,2.175L-2.546,13.795z"/>
		<path id="Tracé_839" d="M13.399,31.954v3.63h17.782V22.777H16.799L13.399,31.954z"/>
		<rect id="Rectangle_407" x="-51.965" y="17.234" width="18.349" height="18.349"/>
		<rect id="Rectangle_408" x="-51.965" y="1.757" width="18.349" height="12.038"/>
		<rect id="Rectangle_409" x="-30.176" y="1.757" width="18.538" height="12.038"/>
		<path id="Tracé_840" d="M13.399,39.027v15c2.353-2.415,3.667-5.653,3.665-9.024c0-0.021,0-0.039,0-0.061h14.117v-5.92
			L13.399,39.027z"/>
		<path id="Tracé_841" d="M-73.748,18.806v16.777h18.35V17.234h-17.061L-73.748,18.806z"/>
		<rect id="Rectangle_410" x="-30.176" y="17.234" width="18.538" height="18.349"/>
		<path id="Tracé_842" d="M-55.402,1.757h-4.4l-9.85,12.038h14.245L-55.402,1.757z"/>
		<path id="Tracé_843" d="M-95.537,39.027v5.921h14.782c0,0.021,0,0.042,0,0.063c-0.001,3.32,1.274,6.514,3.564,8.918V39.029
			L-95.537,39.027z"/>
		<path id="Tracé_844" d="M-73.748,39.027v17.5c6.353,3.302,14.179,0.829,17.479-5.522c0.351-0.673,0.64-1.373,0.866-2.096v-9.882
			H-73.748z"/>
		<path id="Tracé_845" d="M-8.196,39.027V49.18c2.289,6.772,9.636,10.41,16.41,8.121c0.598-0.201,1.181-0.447,1.742-0.734v-17.54
			H-8.196z"/>
	</g>
	<path id="Tracé_833-2" fill="none" d="M-74.39,87.069v1.571l1.286-1.571H-74.39z"/>
	<path id="Tracé_987" d="M-34.258,105.417L-34.258,105.417z"/>
</g>
</svg>
