<?xml version="1.0" encoding="UTF-8" standalone="no"?>
<!DOCTYPE svg PUBLIC "-//W3C//DTD SVG 1.1//EN" "http://www.w3.org/Graphics/SVG/1.1/DTD/svg11.dtd">
<svg width="100%" height="100%" viewBox="0 0 501 568" version="1.1" xmlns="http://www.w3.org/2000/svg" xmlns:xlink="http://www.w3.org/1999/xlink" xml:space="preserve" xmlns:serif="http://www.serif.com/" style="fill-rule:evenodd;clip-rule:evenodd;stroke-linejoin:round;stroke-miterlimit:2;">
    <g id="Faons">
        <path d="M217.8,144C218.7,144 221.3,146.3 223.5,149.2C225.7,152 229.7,156.1 232.5,158.3C235.2,160.4 242.6,164.7 248.9,167.8C255.1,171 262.1,175.2 268.5,181L266,182.8C264.6,183.7 261.3,186.3 258.5,188.6C255.8,190.8 251.6,195 249.2,197.8C246.9,200.7 244.8,202.7 244.5,202.3C244.2,201.8 244,200.2 244,198.5C244,196.8 243.2,194.3 242.2,192.8C241.3,191.4 237.5,187.2 233.7,183.6C230,180 225.9,174.9 224.6,172.3C223.3,169.6 220.6,163.1 218.6,157.8C216.6,152.4 215.2,147.1 215.6,146C215.9,144.9 216.9,144 217.8,144Z" style="fill:rgb(188,133,100);"/>
        <path d="M344.2,146.1C344.7,146 345,146.3 345,146.8C344.9,147.2 343.5,149.1 341.8,151C340.1,152.9 337.5,157 336.1,160C333.8,164.8 333.5,167.2 333,180C332.6,192.2 332.1,195.1 330.4,198C329.3,199.9 326.6,202.8 324.4,204.3C322.3,205.9 318.3,208.6 315.5,210.3C311.1,213.2 310.2,214.4 307.3,221.5C304.5,228.3 302.7,230.8 295.6,238C291,242.7 286.5,247.8 285.7,249.5C284.9,251.2 283.5,256.6 282.6,261.5C281.6,266.9 279.9,272.4 278.2,275.4C276.7,278 274.044,282.2 272.644,284C270.044,287 270,286.5 253.2,286.5L253.4,278.4C253.5,270.3 253.5,270.2 247.5,258.4C242.2,247.9 241.5,245.7 241.1,239.5C240.8,234.1 241.3,230.4 243.4,223C244.9,217.8 247.8,210.4 249.8,206.5C252,202.4 256.2,196.9 260,193C264.1,189 268.9,185.3 273,183.3C276.6,181.5 282.4,179.3 286,178.3C289.6,177.4 296.5,176.6 301.5,176.6C306.4,176.5 312,176.8 313.7,177.3C316.8,177.9 317.1,177.8 318.2,174.8C318.9,173 321.3,169 323.5,165.9C325.7,162.7 331.1,157 335.5,153.1C339.9,149.3 343.8,146.1 344.2,146.1Z" style="fill:rgb(188,133,100);"/>
        <path d="M167.2,249.2C171,249.1 182.4,249.7 192.7,250.6C205.2,251.7 216,252 224.7,251.6C233.3,251.2 238,251.4 238,252C238,252.6 240.2,256.7 243,261.3C246.5,267 248.2,271 248.6,274.5C249,277.3 249,280.9 248.6,282.5C248.3,284.1 247,288.9 243.8,300.5L246.1,305.4C247.4,308.1 249.8,311.3 251.5,312.5C253.1,313.7 256.4,315.4 258.7,316.3C261.1,317.3 265.7,318 269,318C272.4,318 276.8,317.2 279.2,316.3C281.6,315.3 288.3,310.7 294.1,306C300,301.3 309.4,295 315.1,292C322.9,288 327.2,284.8 332.2,279.8C336,276.1 339,273.6 339,274.3C339,274.9 338.1,277.8 336.9,280.5C335.6,283.3 332.7,287.5 326.1,294.5L328.2,303C329.7,309.3 330.1,313.1 329.6,317.5C329.3,320.8 327.9,325.9 326.5,328.8C324.3,333.4 323.6,334 321,334C319.4,334 318,333.7 318,333.3C318,332.8 319,330.5 320.2,328C321.5,325.5 322.6,320.9 322.8,317.5C323.1,314.2 323,310.3 322.6,308.8C322.3,307.2 321.7,306 321.2,306C320.8,306 320.2,308.6 319.8,311.7C319.3,314.9 317.9,319.4 316.5,321.8C315.1,324.1 312.3,327.3 310.2,328.8C306.6,331.6 306.2,331.6 289.8,332.1C278.8,332.3 272.7,332.9 271.8,333.7C270.8,334.6 272.4,335 279.5,335.5C284.4,335.8 295,336.8 303,337.7C311,338.5 318.1,339.5 318.7,339.9C319.4,340.2 315.7,342.5 310.2,345C304.9,347.4 296.4,351.7 291.5,354.4C286.5,357.1 279.2,361.5 268,369L246.7,369C234.1,369 223.9,368.5 221.5,367.9C219.3,367.2 216,365.2 214.2,363.4C211.6,360.6 211,359.2 211,355.8C211,353.4 212.1,349 213.3,346C214.5,343 217.6,337.1 220.2,333C222.8,328.9 225,325.1 225,324.5C225,323.9 223.4,325.1 221.4,327C219.5,328.9 215.6,333.9 212.9,338C210.1,342.1 207.2,347.8 206.4,350.5C205.6,353.3 205,357 205,358.8C205,360.5 204.8,362 204.5,362C204.2,362 201.3,360.6 198,359C194.7,357.4 192,355.7 192,355.3C192.1,354.8 194.4,352 197.3,349C200.2,346 204,340.6 205.8,337C207.6,333.4 209.6,327.6 210.2,324C211.2,318.9 211.1,316.1 210.1,311C209.4,307.4 207.9,302.7 206.8,300.5C205.7,298.3 203.3,294.7 201.6,292.5C199.8,290.3 196.1,287 193.4,285.2C190.7,283.4 185.6,281 182,279.8C177.3,278.3 172.8,277.7 165.5,277.7C160,277.7 154.6,278.1 153.5,278.7C151.9,279.5 153.7,280 162.5,281C168.5,281.6 175.5,282.9 178,283.9C180.5,284.8 184.5,286.7 187,288.2C189.5,289.6 193.3,292.7 195.4,295.1C197.6,297.5 200.3,301.5 201.4,304C203.1,307.5 203.5,310.4 203.4,317.5C203.4,324.6 202.9,327.6 201.1,331.5C199.9,334.3 197.1,338.9 194.9,341.8C192.8,344.6 189.5,348.1 184.5,351.9L163.5,343.4C151.9,338.7 138.4,332.9 133.5,330.3C128.5,327.8 121.1,323.5 117,320.8C112.9,318 109.2,316.2 108.7,316.7C108.3,317.1 106.9,320.5 105.5,324.3C103.9,328.7 103,333.1 103,337C103,340.3 102.7,343 102.2,343C101.8,343 97.4,338.9 92.5,333.8C87.5,328.7 81.8,322.3 79.7,319.5C77.7,316.8 76.1,313.7 76,312.8C76,311.8 77,309.1 78.1,306.8C79.3,304.4 82.2,299.5 84.6,295.8C87,292 92.3,285.6 96.2,281.4C100.2,277.2 106.9,271.3 111,268.2C115.1,265.1 122.5,260.7 127.5,258.4C132.4,256.1 140.3,253.3 145,252.1C149.7,251 155.1,249.9 157,249.7C158.9,249.5 163.5,249.2 167.2,249.2Z" style="fill:rgb(189,128,92);"/>
        <path d="M373,307C373.8,307 376,307.9 377.7,309C379.5,310.1 381,311.4 381,312C381,312.6 378.9,314.3 376.2,315.8C373.6,317.4 368.9,319.9 365.7,321.3C362.6,322.8 360,323.7 360,323.3C360.1,322.8 361.6,320.8 363.5,318.8C365.4,316.7 368,313.2 369.2,311C370.4,308.8 372.1,307 373,307Z" style="fill:rgb(188,133,100);"/>
        <path d="M223.6,374.6L231.5,375.3C235.9,375.7 243.9,376 259,376L242.5,391.8L237.5,387.1C234.7,384.6 230.5,380.7 228,378.6L223.6,374.6Z" style="fill:rgb(188,133,100);"/>
        <path d="M369.813,124.346C374.813,124.646 375.387,128.826 375.9,131.5C376.254,133.345 377.438,137.752 378.3,141.5C378.8,145.4 379,153 378.6,158.5C378.3,164 377.3,170.8 376.5,173.5C375.6,176.3 373.6,180.8 372,183.5C370.4,186.3 365.7,191.9 361.5,196C355.2,202.3 354,204 354,206.8C354,209 355.5,212.3 358.9,217.3C361.6,221.2 365.4,228.9 367.4,234.3C369.4,239.6 371.7,247.2 372.5,251C373.3,254.9 374,263.1 374,269.5C374,276.6 373.4,283.8 372.3,288.3C371.4,292.2 369.6,298.2 368.3,301.5C367,304.8 363.5,310.6 360.5,314.5C357.6,318.4 352.8,323.5 349.8,326C346.9,328.4 341.6,331.7 338,333.3C333.3,335.4 330.6,336 328.2,335.6C326.5,335.3 324.8,334.7 324.6,334.3C324.3,333.8 325.2,331.3 326.6,328.5C327.9,325.8 329.3,320.8 329.6,317.5C330.1,313.1 329.7,309.3 326.1,294.5L330.4,290C332.7,287.5 335.6,283.3 336.9,280.5C338.1,277.8 339,274.9 339,274.3C339,273.6 361.811,237.47 331.358,274.761C326.258,279.761 324.416,281.468 316.616,285.568C310.916,288.568 288.11,301.191 287.468,301.746C287.056,302.102 284.561,303.399 282.3,304.8C279.2,307.1 277.5,307.5 271.3,307.8C267.3,307.9 264.035,307.798 264,307.5C263.811,305.878 265.495,305.991 266.5,304C267.315,302.386 268.415,300.047 268.706,299.195C269.063,298.153 270.272,296.107 268.954,295.234C267.474,294.253 261.473,293.964 249.328,293.881L253.179,286.548C256.117,286.523 261.5,286.5 261.5,286.5C270,286.5 270.3,286.4 272.9,283.4C274.3,281.6 276.7,278 278.2,275.4C279.9,272.4 281.6,266.9 282.6,261.5C283.5,256.6 284.9,251.2 285.7,249.5C286.5,247.9 291,242.7 295.6,238C302.7,230.8 304.5,228.3 307.3,221.5C310.2,214.4 311.1,213.2 315.5,210.3C318.3,208.6 322.3,205.9 324.4,204.3C326.6,202.8 329.3,199.9 330.4,198C332.1,195.1 332.6,192.2 333,180C333.5,167.2 333.8,164.8 336.1,160C337.5,157 340.1,152.8 341.8,150.8C343.6,148.7 344.8,146.6 344.5,146C344.2,145.4 345.9,143.5 348.2,141.8C350.4,140 355.064,136.358 357.9,133.2C362.692,127.864 364.413,124.146 369.813,124.346Z" style="fill:rgb(235,215,190);"/>
        <path d="M215.54,146.374C215.478,146.837 217.553,155.824 220,161.5C221.404,164.757 223.3,169.5 224.5,172C225.7,174.5 230.4,180.2 234.9,184.8C239.3,189.3 243.2,194 243.4,195.3C243.7,196.5 244.1,199 244.4,200.8C245,203.9 244.9,204 241.3,204C238.5,204.1 236.4,203.2 233.4,200.8C231.1,199 228.1,196.2 226.7,194.5C225.4,192.9 223.1,189.3 221.7,186.5C220.4,183.8 218.5,179.3 217.7,176.5C216.9,173.8 215.9,168.4 215.5,164.5C215,160.7 214.781,156.47 214.712,155.354C214.522,152.271 215.137,146.222 215.536,146.28C215.55,146.282 215.537,146.357 215.54,146.374Z" style="fill:rgb(235,215,190);"/>
        <path d="M355.9,174.8C354.6,177.9 352,182.7 350.1,185.5C348.2,188.2 344.3,193.4 341.3,197C338.4,200.6 336.4,203.6 337,203.7C337.5,203.9 340.4,202.7 343.3,201.1C346.2,199.5 350,196.3 351.8,193.9C353.6,191.5 355.9,187.2 356.9,184.5C357.9,181.7 359,177.1 359.3,174.2C359.7,171.4 359.6,169 359.1,169C358.7,169 357.2,171.6 355.9,174.7L355.9,174.8Z" style="fill:rgb(188,133,100);fill-rule:nonzero;"/>
        <path d="M309.7,252.6C308.2,254.6 304.3,257.4 300.7,259.2C297.2,260.9 293.8,263.1 293.2,264.2C292.5,265.2 292.3,266.1 292.8,266.1C293.2,266.1 296.2,265.4 299.5,264.5C302.8,263.7 306.5,262.3 307.8,261.5C309,260.7 310.9,258.6 312,256.8C313.1,255.1 314,252.6 314,251.3C314,250.1 313.7,249.1 313.2,249.1C312.8,249.1 311.2,250.7 309.7,252.6Z" style="fill:rgb(188,133,100);fill-rule:nonzero;"/>
        <g id="Nez">
            <path d="M288.055,301.12C288.855,301.12 286.4,304 283.9,306.5C281.5,309 278.1,311.4 276.5,311.9C274.9,312.4 269.218,313.626 267.596,313.498C260.564,312.941 261.825,312.66 261.525,310.06C261.326,307.282 267.51,308.367 272.965,307.907C273.241,307.884 273.055,307.902 273.1,307.9C272.685,307.327 280.402,305.919 283.254,304.003C285.263,302.653 287.255,301.22 288.055,301.12Z" style="fill:rgb(143,77,38);"/>
            <path d="M256,294L260.2,294C263,294.1 268.077,294.406 269.155,295.379C270.214,296.333 268.916,298.679 268.601,299.5C268.315,300.247 267.848,302.356 266.5,304C265.876,304.761 264,307.2 264,307.5C264,307.8 266.942,307.754 268.081,307.809C269.75,307.891 279.445,305.789 279.445,307.456C279.445,309.756 272.268,312.992 269.063,313.434C266.313,313.813 260.1,312.4 258.5,312C256.8,311.5 254.991,310.31 254.2,309.6C253.368,308.854 249.81,306.041 251.01,303.641C251.81,302.041 256,300.2 256,298L256,294Z" style="fill:rgb(143,77,38);"/>
            <path d="M249.328,293.893C262.19,294.137 262.735,293.628 262.735,297.328C262.735,299.528 255.3,303.4 254.5,305C253.7,306.6 252.8,308 252.5,308C252.2,308 251.3,306.6 250.5,305C249.7,303.4 249.135,300.651 249.035,298.851C248.935,296.951 249.247,294.74 249.328,293.893Z" style="fill:rgb(143,77,38);"/>
        </g>
        <g id="Tache">
            <path d="M213.9,265.6C212.7,267 212.8,267.5 215,269.2C216.6,270.4 219,271.1 221.8,271C224.1,271 227.1,270.5 228.5,270C229.9,269.4 231,268.3 231,267.5C231,266.7 230.1,265.5 229,265C227.9,264.4 224.4,264 221.1,264C216.9,264 214.8,264.5 213.9,265.6Z" style="fill:rgb(235,215,190);fill-rule:nonzero;"/>
            <path d="M174.9,261.6C173.8,262.8 173.8,263.6 174.6,264.8C175.2,265.8 177.7,266.9 180.1,267.4C183,268 185.8,267.9 188.3,267.1C190.3,266.5 192.3,265.2 192.7,264.2C193.1,263.1 192.6,262.1 191.4,261.2C190.3,260.5 186.6,260 182.9,260C178.1,260 175.8,260.4 174.9,261.6Z" style="fill:rgb(235,215,190);fill-rule:nonzero;"/>
            <path d="M117.5,276.7C115.9,277.5 113.3,279.4 111.7,280.9C110.2,282.3 109,284.3 109,285.2C109,286.2 109.8,287.2 110.8,287.5C111.7,287.8 114.1,287.5 116,286.9C117.9,286.2 121.4,284.4 123.8,282.9C126.9,280.8 128,279.3 128,277.5C128,275.3 127.6,275 124.3,275C122.2,275.1 119.2,275.8 117.5,276.7Z" style="fill:rgb(235,215,190);fill-rule:nonzero;"/>
        </g>
        <path d="M144,261.3C142,262 139.6,263.2 138.7,264C137.7,264.8 136.9,266.1 137,266.7C137,267.4 138,268.5 139.3,269.1C140.6,269.8 143.5,270 146.5,269.6C149.3,269.3 153,268 154.9,266.8C156.8,265.5 158.5,263.9 158.7,263.2C158.9,262.6 157.9,261.5 156.5,261C155.1,260.4 152.5,260 150.7,260C149,260.1 145.9,260.6 144,261.3Z" style="fill:rgb(238,229,215);fill-rule:nonzero;"/>
    </g>
    <g id="Feuille-haut-gauche">
        <path d="M390.896,146.157C389.832,141.544 385.855,130.198 385.2,128.7C384.5,127.1 384.5,126 385,126C385.6,126 387.1,126.8 388.5,127.7C390.563,129.185 400.327,136.427 403.68,139.808C407.556,143.323 412.302,147.895 415.9,151.7C421.1,157.2 428,165.3 431.1,169.6C434.2,173.9 438.8,181.3 441.3,186C443.8,190.7 447.7,200.1 454.2,219.5L453.1,229.5C452.5,235 451.5,241.9 451,244.8C450.926,245.161 450.855,245.497 450.786,245.811C450.774,245.928 450.753,246.049 450.722,246.174C450.422,247.274 448.8,254.9 448.5,256C448.2,257.1 447.5,258 447,258C446.4,258 446,256.9 446,255.5C446,254.368 445.039,248.722 444.461,246.182C444.259,245.508 444.043,244.721 443.8,243.8C442.9,240.3 440.7,233.9 438.9,229.5C437.2,225.1 434.1,218.6 432.1,215.1C430.1,211.6 428.1,208.6 427.7,208.4C427.2,208.2 426.9,208.3 426.9,208.8C426.9,209.2 428.4,213.3 430.3,218C432.2,222.7 435,231.9 436.5,238.5C438.9,248.8 439.3,252.7 439.3,266C439.4,274.6 439,282.3 438.4,283.2C437.5,284.8 436.8,284.5 431.2,281C427.7,278.8 421.2,273.5 416.8,269.3C412.3,265 406.8,258.8 404.6,255.5C402.4,252.2 399.3,246.8 397.7,243.5C396.2,240.2 394,234.4 392.8,230.5C391.5,225.9 390.5,219.4 390.2,211.5C389.8,203 390.1,195.5 391.4,185.5C392.7,175.8 393,168.2 392.6,160.5C392.387,155.234 391.819,150.525 390.896,146.157Z" style="fill:rgb(67,112,97);"/>
    </g>
    <g id="Feuille-bas-droit">
        <path d="M463.3,219C463.8,219 465.1,222.8 466.1,227.5C467.2,232.2 468.9,241.5 470,248.3C471.2,255 472.4,267.2 472.7,275.5C473,284.5 472.8,295.3 472.1,302.5C471.4,309.1 469.8,319.9 468.5,326.5C467.1,333.1 465,342.1 463.7,346.5C462.4,350.9 459.6,358.8 457.5,364C455.5,369.2 451.6,377.8 448.9,383C446.2,388.2 441.4,396.6 438.2,401.5C435,406.4 429.2,414.4 425.4,419.1C421.6,423.8 416.1,430.4 413.1,433.6C408.2,438.9 406.1,440.2 394.1,445.6C386.6,449 376,453.4 370.5,455.5C365,457.5 356.4,460.3 351.5,461.6C346.5,462.9 337.1,465 330.5,466.2C321.3,467.8 314.4,468.3 301,468.4C288.8,468.4 280.2,467.9 272.5,466.6C266.4,465.6 260.8,464.4 260,464C258.9,463.4 259.8,462.9 263,462C265.5,461.4 271.1,459.7 275.5,458.3C279.9,456.9 289.1,453.3 296,450.3C302.9,447.4 312.5,442.7 317.5,439.8C322.4,437 330.8,431.9 336,428.4C341.2,425 346.4,421.2 347.5,420C348.6,418.9 349.2,417.9 348.7,418C348.3,418 342.7,421 336.2,424.7C329.8,428.3 320.2,433.2 315,435.5C309.8,437.8 301.7,441.1 297,442.8C292.3,444.5 283.8,447.3 278,449C272.2,450.7 261.6,453.4 254.5,455C247.3,456.5 239.5,458.1 237,458.5C233.9,459 229.8,458.6 215.8,455.5L216.4,452.5C216.8,450.9 219.4,444.6 222.3,438.5C225.2,432.4 230.7,422.8 234.6,417.1C238.4,411.4 244.4,403.5 248,399.6C251.6,395.7 258.1,389.2 262.5,385.1C266.9,381 275.4,374.4 281.5,370.4C287.5,366.4 297.9,360.5 304.5,357.2C311.1,353.9 325.5,347.6 336.5,343.2C347.5,338.8 360.3,333.4 365,331.3C369.7,329.1 377.1,325.2 381.5,322.6C387.7,318.9 389.7,318.1 390.2,319.1C390.6,319.9 391,323.2 391,326.5C391,329.8 390.3,334.5 389.5,337C388.6,339.5 386,344.2 383.6,347.5C381.3,350.8 376.5,355.7 373.1,358.5C369.6,361.2 367.3,363.6 367.9,363.7C368.5,363.9 373.4,361.7 378.7,358.9C384.1,356.1 391.9,351.5 395.9,348.6C400,345.8 407.4,339.7 412.3,335C417.3,330.3 424.8,321.8 429.2,316C433.7,309.9 439.5,300.5 443,293.5C446.2,286.9 450.7,276.1 452.9,269.5C455.1,262.9 457.8,253 458.9,247.5C460,242 461.3,233.3 461.6,228.2C462,223.2 462.7,219 463.3,219Z" style="fill:rgb(111,140,83);"/>
    </g>
    <g id="Feuille-bas-gauche">
        <path d="M41.708,230.851C41.921,233.557 42.211,237.317 42.5,240.5C42.8,244.9 44,253.2 45.1,259C46.2,264.8 48.7,274.2 50.6,280C52.5,285.8 56,294.6 58.3,299.5C60.6,304.5 65.8,313.5 69.9,319.5C74.4,326.1 81.4,334.5 87.4,340.6C93.6,346.9 101.2,353.1 107.4,357.3C112.9,360.9 120.4,365.2 124.1,366.9C127.9,368.6 131.1,370 131.4,370C131.7,370 128.4,366.5 124.1,362.3C119.7,357.9 115.2,352.3 113.9,349.5C112,345.7 111.4,342.9 111.4,338C111.4,334.4 111.8,330.7 112.2,329.8C112.8,328.2 113.4,328.3 118.1,331.4C121,333.2 126.5,336.3 130.4,338.3C134.2,340.2 146.7,345.7 158.1,350.4C169.6,355.1 183.5,361.3 189.1,364.1C194.8,366.9 203,371.5 207.4,374.4C211.8,377.3 219.5,383 224.4,387.2C229.3,391.3 234.2,395.7 235.1,396.8C236.9,398.9 236.7,399.2 230.3,408.3C226.7,413.3 221.6,421.3 219.1,426C216.6,430.7 212.8,438.8 210.8,444C207.9,451.4 206.7,453.5 205.2,453.4C204.2,453.3 197.5,452.2 190.4,451C181.3,449.5 171.1,448.7 156.4,448.3C143,447.9 131.2,448.2 123.9,448.9C117.6,449.6 111.6,450.3 110.6,450.6C109.5,450.9 105.9,448.1 99.8,442.3C94.7,437.4 87.3,429.7 83.2,425C79,420.3 72.1,411.1 67.7,404.5C63.2,397.9 56.6,386.2 52.8,378.5C49.1,370.8 44.2,359.1 42,352.5C39.8,345.9 36.9,334.9 35.5,328C34.1,321.1 32.4,310.8 31.8,305C31.1,298.7 30.9,287.3 31.2,276.5C31.6,263.2 32.4,254.9 34.3,244.5C35.302,239.359 36.348,234.173 37.111,230.788C37.776,227.011 39.141,221.779 39.7,220.6C40.4,219.2 41.2,218 41.5,218C41.8,218 41.9,220.4 41.9,223.3C41.803,226.028 41.617,229.55 41.7,230.76C41.703,230.791 41.705,230.821 41.708,230.851Z" style="fill:rgb(38,79,61);"/>
    </g>
    <g id="Feuille-haut-gauche1">
        <path d="M162.6,110C163.2,110 161.3,113.5 158.4,117.8C155.5,122 151.3,129.6 148.9,134.5C146.6,139.4 143.6,147.8 142.3,153C140.9,158.7 139.4,169.6 138.5,180.5C137.7,190.4 136.2,201.9 135.1,206C134.1,210.1 131.8,217.1 130.1,221.5C128.4,225.9 125.1,232.4 122.8,236C120.4,239.6 115.8,245.4 112.5,248.9C109.2,252.4 102.9,257.9 98.5,261.2C94.1,264.5 85.5,269.6 79.5,272.6C73.4,275.5 67.5,278.1 66.2,278.5C64.4,278.9 64,278.6 64,276.5C64,275.1 64.9,268.9 65.9,262.7C67,256.6 69.1,247.7 70.6,243C72,238.3 75,230.4 77.2,225.5C78.061,223.583 79.136,221.298 80.263,219C82.018,215.424 83.9,211.813 85.3,209.5C87.5,205.7 89.9,201.5 90.7,200.2C91.7,198.5 91.7,198 90.7,198C90.1,198 86.4,202.2 82.6,207.3C78.8,212.3 73.1,221.9 69.9,228.5C66.1,236.3 63,244.6 61,252C59.4,258.3 57.8,264.9 57.5,266.5C57.1,268.3 56.6,269.1 56.1,268.5C55.6,267.9 54.4,263.9 53.4,259.5C52.2,254.3 51.6,248 51.6,241.5C51.7,235.2 52.6,227.8 54,221.5C55.2,216 57.9,207.2 59.9,202C62,196.8 65.9,188.7 68.6,184C71.3,179.3 76.2,172.1 79.5,168C82.7,163.9 88.2,157.8 91.5,154.5C94.9,151.2 100.9,145.8 105,142.4C109.1,139 116.3,133.8 121,130.7C125.7,127.7 132.6,123.5 136.5,121.4C140.3,119.3 147.5,115.9 152.5,113.8C157.4,111.7 162,110 162.6,110Z" style="fill:rgb(94,130,86);"/>
    </g>
    <g id="Drone">
        <path d="M217.522,96C218.181,96.007 219.386,98.721 219.966,100.055C220.508,101.301 221.001,104 221.001,104L292.999,104.001C292.999,104.001 293.415,101.262 293.975,100.014C294.573,98.68 295.929,96.001 296.586,96C297.243,95.999 298.451,98.73 299.022,100.062C299.555,101.303 300.195,102.63 300.437,104.005C300.775,105.922 301.6,108.065 301.049,109.994C300.774,110.955 300.168,112.438 299.457,113.863C298.455,115.873 297.244,117.766 296.464,117.907C295.132,118.148 293.057,113.004 293.057,113.004C293.057,113.004 290.829,110.071 289.005,110.039C285.78,109.982 274.056,113.096 274.056,113.096C274.056,113.096 270.863,139.795 269.959,139.815C269.347,139.828 268.789,133.984 268.889,129.427C269.02,123.488 269.448,119.321 268.997,117.907C268.702,116.983 267.442,120.021 266.995,120.02C266.538,120.019 249.369,120.002 249.008,120.012C248.519,120.025 247.419,117.198 247,118.004C246.275,119.4 245.995,122.727 246.051,129.427C246.11,136.565 245.532,139.815 244.987,139.815C244.324,139.815 242.013,113.113 242.013,113.113C242.013,113.113 228.432,109.956 224.996,110.021C223.329,110.052 221.4,113.5 221.4,113.5C221.4,113.5 218.886,118.483 217.48,117.907C216.073,117.332 213.551,112.359 212.962,110.046C212.46,108.077 213.141,105.719 213.48,104.044C213.766,102.632 214.43,101.265 214.996,99.997C215.593,98.659 216.863,95.993 217.522,96Z" style="fill:rgb(27,74,58);"/>
        <g transform="matrix(1.394569,0,0,1.394569,-101.752995,-67.476909)">
            <ellipse cx="257.605" cy="141.194" rx="3.911" ry="3.82" style="fill:rgb(27,74,58);"/>
        </g>
        <g transform="matrix(-1,0,0,1,435.814017,0)">
            <path d="M203.6,98.1C208.1,98.3 212.2,98.8 212.7,99.2C213.1,99.7 213.2,100.3 212.8,100.6C212.4,101 208.6,101.3 204.3,101.3C200,101.3 195.9,101 195.2,100.7C194.6,100.3 194.3,99.5 194.7,98.9C195.1,98.2 198.2,97.9 203.6,98.1Z" style="fill:rgb(110,142,100);"/>
        </g>
        <g transform="matrix(-1,0,0,1,514.288332,0)">
            <path d="M203.6,98.1C208.1,98.3 212.2,98.8 212.7,99.2C213.1,99.7 213.2,100.3 212.8,100.6C212.4,101 208.6,101.3 204.3,101.3C200,101.3 195.9,101 195.2,100.7C194.6,100.3 194.3,99.5 194.7,98.9C195.1,98.2 198.2,97.9 203.6,98.1Z" style="fill:rgb(110,142,100);"/>
        </g>
        <g transform="matrix(1,0,0,1,-0.271583,0)">
            <path d="M203.6,98.1C208.1,98.3 212.2,98.8 212.7,99.2C213.1,99.7 213.2,100.3 212.8,100.6C212.4,101 208.6,101.3 204.3,101.3C200,101.3 195.9,101 195.2,100.7C194.6,100.3 194.3,99.5 194.7,98.9C195.1,98.2 198.2,97.9 203.6,98.1Z" style="fill:rgb(110,142,100);"/>
        </g>
        <g transform="matrix(1,0,0,1,78.156379,0)">
            <path d="M203.6,98.1C208.1,98.3 212.2,98.8 212.7,99.2C213.1,99.7 213.2,100.3 212.8,100.6C212.4,101 208.6,101.3 204.3,101.3C200,101.3 195.9,101 195.2,100.7C194.6,100.3 194.3,99.5 194.7,98.9C195.1,98.2 198.2,97.9 203.6,98.1Z" style="fill:rgb(110,142,100);"/>
        </g>
    </g>
    <g id="Feuille-du-bas">
        <path d="M152.5,456.5C167.4,456.7 177.4,457.4 187,458.9C194.4,460.1 207,462.4 215,464.1C223,465.7 238.3,468.8 249,471C259.7,473.1 272.9,475.3 278.2,475.9C283.6,476.5 293.9,477 301,477C308.1,477 319.1,476.3 325.2,475.4C331.4,474.6 341,472.8 346.5,471.5C352,470.2 361.7,467.3 368,465.1C374.3,462.9 379.6,461.3 379.7,461.5C379.9,461.8 376.3,464.4 371.7,467.3C367.2,470.3 359.2,475 354,477.8C348.8,480.6 339.5,484.8 333.5,487C327.4,489.3 319.1,492.2 315,493.5C310.9,494.7 302.8,496.7 297,497.9C291.2,499 282.4,500.5 277.5,501.1C271.8,501.8 260.2,502.1 246,501.7C231.3,501.4 220.4,500.6 214.5,499.5C209.5,498.6 201.2,496.8 196,495.5C190.8,494.2 182,491.5 176.5,489.5C171,487.5 162,483.8 156.5,481.1C151,478.5 143.3,474.5 139.5,472.3C135.6,470 129.7,466.1 126.2,463.6C122.8,461.1 120.3,458.7 120.6,458.2C120.9,457.8 123.5,457.2 126.3,456.8C129.2,456.5 140.9,456.3 152.5,456.5Z" style="fill:rgb(85,134,163);"/>
    </g>
    <g id="Bretagne" transform="matrix(0.97052,0,0,0.97052,63.317644,218.762782)">
        <g transform="matrix(0.922259,0.386574,-0.386574,0.922259,128.37661,-7.551008)">
            <text x="82.962px" y="315.404px" style="font-family:'Montserrat-SemiBold', 'Montserrat';font-weight:600;font-size:37.094px;fill:rgb(27,74,58);">B</text>
        </g>
        <g transform="matrix(0.967219,0.253942,-0.253942,0.967219,87.12853,-18.344253)">
            <text x="114.618px" y="328.308px" style="font-family:'Montserrat-SemiBold', 'Montserrat';font-weight:600;font-size:37.094px;fill:rgb(27,74,58);">R</text>
        </g>
        <g transform="matrix(0.991659,0.128892,-0.128892,0.991659,44.579757,-16.104068)">
            <text x="146.711px" y="336.375px" style="font-family:'Montserrat-SemiBold', 'Montserrat';font-weight:600;font-size:37.094px;fill:rgb(27,74,58);">E</text>
        </g>
        <g transform="matrix(0.999854,0.017063,-0.017063,0.999854,5.826763,-2.975225)">
            <text x="177.27px" y="339.978px" style="font-family:'Montserrat-SemiBold', 'Montserrat';font-weight:600;font-size:37.094px;fill:rgb(27,74,58);">T</text>
        </g>
        <g transform="matrix(0.994664,-0.103164,0.103164,0.994664,-34.00713,23.024045)">
            <text x="205.579px" y="340.273px" style="font-family:'Montserrat-SemiBold', 'Montserrat';font-weight:600;font-size:37.094px;fill:rgb(27,74,58);">A</text>
        </g>
        <g transform="matrix(0.971814,-0.235747,0.235747,0.971814,-72.569027,65.841588)">
            <text x="239.069px" y="336.409px" style="font-family:'Montserrat-SemiBold', 'Montserrat';font-weight:600;font-size:37.094px;fill:rgb(27,74,58);">G</text>
        </g>
        <g transform="matrix(0.926464,-0.376384,0.376384,0.926464,-103.355391,126.709972)">
            <text x="272.595px" y="327.859px" style="font-family:'Montserrat-SemiBold', 'Montserrat';font-weight:600;font-size:37.094px;fill:rgb(27,74,58);">N</text>
        </g>
        <g transform="matrix(0.860772,-0.50899,0.50899,0.860772,-117.141161,199.319133)">
            <text x="305.766px" y="313.782px" style="font-family:'Montserrat-SemiBold', 'Montserrat';font-weight:600;font-size:37.094px;fill:rgb(27,74,58);">E</text>
        </g>
    </g>
    <g transform="matrix(0.97052,0,0,0.97052,68.999578,100.841316)">
        <g transform="matrix(0.649431,-0.760421,0.760421,0.649431,-42.353981,20.345724)">
            <text x="0.889px" y="56.108px" style="font-family:'Montserrat-SemiBold', 'Montserrat';font-weight:600;font-size:72px;fill:rgb(27,74,58);">S</text>
        </g>
        <g transform="matrix(0.823749,-0.566955,0.566955,0.823749,-5.983411,20.976067)">
            <text x="30.746px" y="20.112px" style="font-family:'Montserrat-SemiBold', 'Montserrat';font-weight:600;font-size:72px;fill:rgb(27,74,58);">O</text>
        </g>
        <g transform="matrix(0.933541,-0.358471,0.358471,0.933541,10.493188,28.583234)">
            <text x="82.333px" y="-14.008px" style="font-family:'Montserrat-SemiBold', 'Montserrat';font-weight:600;font-size:72px;fill:rgb(27,74,58);">S</text>
        </g>
        <g transform="matrix(0.996481,-0.083818,0.083818,0.996481,3.484498,12.128583)">
            <text x="146.189px" y="-35.435px" style="font-family:'Montserrat-SemiBold', 'Montserrat';font-weight:600;font-size:72px;fill:rgb(27,74,58);">F</text>
        </g>
        <g transform="matrix(0.995279,0.097059,-0.097059,0.995279,-2.96644,-18.727312)">
            <text x="191.008px" y="-39.855px" style="font-family:'Montserrat-SemiBold', 'Montserrat';font-weight:600;font-size:72px;fill:rgb(27,74,58);">A</text>
        </g>
        <g transform="matrix(0.945958,0.32429,-0.32429,0.945958,1.937469,-81.473406)">
            <text x="245.417px" y="-34.924px" style="font-family:'Montserrat-SemiBold', 'Montserrat';font-weight:600;font-size:72px;fill:rgb(27,74,58);">O</text>
        </g>
        <g transform="matrix(0.829375,0.558693,-0.558693,0.829375,43.717195,-172.346912)">
            <text x="304.023px" y="-14.6px" style="font-family:'Montserrat-SemiBold', 'Montserrat';font-weight:600;font-size:72px;fill:rgb(27,74,58);">N</text>
        </g>
        <g transform="matrix(0.66225,0.749283,-0.749283,0.66225,133.763381,-257.915425)">
            <text x="352.968px" y="19.416px" style="font-family:'Montserrat-SemiBold', 'Montserrat';font-weight:600;font-size:72px;fill:rgb(27,74,58);">S</text>
        </g>
    </g>
</svg>
