<?xml version="1.0" standalone="no"?>
<!DOCTYPE svg PUBLIC "-//W3C//DTD SVG 20010904//EN"
 "http://www.w3.org/TR/2001/REC-SVG-20010904/DTD/svg10.dtd">
<svg version="1.0" xmlns="http://www.w3.org/2000/svg"
 width="291.000000pt" height="40.000000pt" viewBox="0 0 873.000000 120.000000"
 preserveAspectRatio="xMidYMid meet">
<g transform="translate(0.000000,120.000000) scale(0.100000,-0.100000)"
fill="#96192a" stroke="none">
<path d="M1440 1143 c-145 -49 -236 -126 -291 -243 -12 -25 -26 -53 -31 -64
-9 -18 -15 -47 -40 -188 -11 -67 -7 -114 22 -253 32 -151 129 -279 260 -342
66 -31 148 -43 161 -22 13 21 12 26 -26 68 l-35 38 0 445 0 444 32 33 c31 32
40 64 24 89 -9 15 -20 14 -76 -5z"/>
<path d="M1617 1153 c-18 -17 -6 -63 22 -83 61 -43 61 -44 61 -487 0 -443 1
-439 -61 -490 -29 -25 -36 -47 -21 -70 6 -9 21 -10 57 -4 54 10 137 38 145 50
3 4 22 17 43 30 21 13 53 44 72 70 19 25 39 51 44 57 11 13 41 88 65 159 25
77 23 321 -4 406 -29 92 -64 157 -115 216 -56 63 -119 103 -209 131 -74 24
-89 26 -99 15z"/>
<path d="M3637 1135 c-35 -25 -77 -88 -77 -118 0 -30 42 -108 67 -125 15 -9
43 -22 62 -27 21 -6 37 -18 39 -29 4 -20 -53 -77 -117 -116 -65 -40 -66 -70
-2 -70 30 0 52 10 97 43 82 61 154 146 154 183 0 13 4 25 9 28 20 13 22 82 5
127 -23 58 -46 87 -89 110 -49 27 -103 24 -148 -6z"/>
<path d="M6030 1143 c-145 -49 -236 -126 -291 -243 -12 -25 -26 -53 -31 -64
-9 -18 -15 -47 -40 -188 -11 -67 -7 -114 22 -253 32 -151 129 -279 260 -342
66 -31 148 -43 161 -22 13 21 12 26 -26 68 l-35 38 0 445 0 444 32 33 c31 32
40 64 24 89 -9 15 -20 14 -76 -5z"/>
<path d="M6207 1153 c-18 -17 -6 -63 22 -83 61 -43 61 -44 61 -487 0 -444 1
-436 -62 -492 -25 -23 -30 -33 -24 -54 6 -25 9 -27 49 -21 47 7 142 39 160 54
7 6 30 23 52 38 66 47 125 145 169 277 25 77 22 318 -4 405 -29 92 -63 158
-115 217 -56 63 -119 103 -209 131 -74 24 -89 26 -99 15z"/>
<path d="M221 1132 c-233 -3 -263 -14 -181 -68 l40 -27 0 -459 0 -459 -28 -10
c-43 -15 -55 -42 -31 -68 19 -21 27 -21 217 -19 l197 3 3 546 c2 430 -1 548
-10 555 -7 5 -100 8 -207 6z"/>
<path d="M2400 1129 c-113 -3 -206 -6 -207 -7 -2 -1 -3 -11 -3 -22 0 -13 10
-22 36 -29 20 -5 42 -18 50 -28 19 -24 54 -102 54 -119 0 -7 6 -28 14 -46 17
-42 35 -94 46 -133 5 -16 14 -46 21 -65 6 -19 17 -51 24 -70 7 -19 18 -51 24
-70 7 -19 16 -48 21 -65 10 -38 29 -91 45 -130 7 -16 23 -64 35 -105 13 -41
27 -79 31 -85 5 -5 9 -18 9 -30 1 -34 38 -105 52 -100 8 3 20 27 27 53 13 46
26 92 58 202 9 30 22 72 29 93 8 20 14 48 14 62 0 13 4 26 9 29 5 4 12 25 16
48 4 22 14 56 21 74 9 21 14 70 14 129 0 96 -14 128 -25 58 -14 -89 -14 -87
-36 -67 -11 10 -25 37 -31 61 -6 24 -14 46 -19 49 -5 3 -9 14 -9 26 0 11 -6
34 -14 51 -8 18 -16 41 -19 52 -14 53 -60 171 -70 180 -8 6 -87 8 -217 4z"/>
<path d="M2939 1124 c-5 -6 -10 -230 -11 -505 l-3 -494 -34 -16 c-49 -23 -57
-43 -25 -68 25 -20 39 -21 244 -21 205 0 219 1 244 21 21 17 24 24 16 40 -6
10 -22 22 -36 25 -13 3 -29 14 -34 24 -6 12 -10 192 -10 459 l0 440 26 20 c15
12 32 21 39 21 18 0 27 30 14 46 -14 17 -416 25 -430 8z"/>
<path d="M4298 1132 c-184 -2 -198 -4 -208 -22 -9 -17 -5 -23 30 -46 l40 -27
0 -459 0 -459 -30 -11 c-40 -13 -52 -37 -34 -63 14 -19 27 -20 250 -20 219 0
237 1 249 19 18 24 4 53 -31 62 -13 3 -29 14 -34 24 -6 12 -10 208 -10 503 0
376 -3 486 -12 493 -7 5 -102 8 -210 6z"/>
<path d="M529 1118 c-3 -30 4 -45 37 -75 19 -18 39 -44 44 -58 6 -16 10 -179
10 -406 0 -419 1 -415 -63 -463 -33 -25 -43 -64 -21 -86 13 -13 159 29 216 63
108 63 209 211 231 337 24 142 1 335 -56 450 -50 104 -109 163 -210 214 -58
29 -84 36 -130 36 -38 0 -57 -4 -58 -12z"/>
<path d="M4606 1114 c-8 -22 19 -64 42 -64 29 0 95 -40 130 -78 18 -21 45 -63
60 -94 29 -63 55 -81 78 -51 10 14 13 50 11 158 l-2 140 -156 3 c-139 2 -157
1 -163 -14z"/>
<path d="M5022 1118 c-19 -19 -15 -26 28 -54 l40 -27 0 -459 0 -459 -30 -11
c-40 -13 -52 -37 -34 -63 14 -19 29 -20 237 -23 214 -3 224 -2 250 18 22 17
25 25 17 41 -6 10 -22 22 -36 25 -13 3 -29 14 -34 24 -6 12 -10 192 -10 459
l0 440 26 20 c15 12 32 21 39 21 18 0 27 30 14 46 -16 19 -488 21 -507 2z"/>
<path d="M6760 1110 c-9 -17 -5 -23 29 -46 l40 -26 3 -412 c3 -454 2 -446 70
-507 47 -43 168 -99 214 -99 22 0 45 -5 51 -11 5 -5 32 -9 58 -7 44 3 49 6 56
32 7 25 4 34 -25 61 -68 64 -66 50 -66 514 l0 420 26 20 c15 12 32 21 39 21
18 0 27 30 14 46 -9 11 -61 14 -255 14 -232 0 -244 -1 -254 -20z"/>
<path d="M7467 1124 c-16 -16 -5 -39 36 -74 73 -65 79 -100 74 -450 -2 -208
-7 -309 -17 -343 -16 -58 -82 -128 -147 -157 -41 -18 -44 -22 -41 -52 3 -31 5
-33 37 -30 79 8 173 91 209 186 21 55 22 72 22 379 0 376 5 403 78 468 28 24
42 45 40 56 -3 16 -18 18 -144 21 -77 1 -143 -1 -147 -4z"/>
<path d="M7891 1116 c-13 -16 -4 -46 14 -46 7 0 24 -9 39 -21 l26 -20 0 -440
c0 -267 -4 -447 -10 -459 -5 -10 -21 -21 -34 -24 -40 -10 -50 -39 -22 -65 22
-21 30 -21 222 -19 l199 3 3 506 2 506 40 27 c43 28 47 35 28 54 -19 19 -491
17 -507 -2z"/>
<path d="M4722 797 c-12 -13 -22 -35 -22 -49 0 -18 -16 -42 -47 -75 -40 -41
-47 -53 -44 -83 2 -23 12 -43 31 -60 15 -14 34 -38 42 -55 8 -16 21 -43 29
-60 8 -16 23 -32 34 -34 39 -7 45 22 45 219 0 168 -2 189 -18 203 -24 22 -24
21 -50 -6z"/>
<path d="M2310 480 c0 -129 -3 -253 -7 -275 -5 -30 -19 -51 -59 -90 -49 -47
-52 -51 -38 -70 13 -18 29 -20 135 -23 97 -3 125 -1 144 12 32 21 32 41 -2 63
-42 27 -62 50 -69 78 -3 14 -10 28 -15 31 -5 3 -9 74 -9 157 0 161 -7 199 -56
302 l-24 49 0 -234z"/>
<path d="M8649 398 c-9 -7 -24 -35 -33 -63 -50 -139 -107 -208 -188 -229 -24
-5 -28 -12 -28 -40 0 -26 5 -35 23 -40 29 -8 221 -8 270 0 l37 7 0 168 c0 129
-3 169 -13 169 -7 0 -18 9 -25 20 -14 23 -22 25 -43 8z"/>
</g>
</svg>
